<svg width="24" height="24" viewBox="0 0 24 24" fill="none" xmlns="http://www.w3.org/2000/svg">
<path d="M21.3362 4.10404L14.2802 0.624036C14.1842 0.576036 14.0882 0.576036 13.9922 0.624036L6.96024 4.10404C6.84024 4.15204 6.79224 4.27204 6.79224 4.39204V5.73604C6.79224 5.90404 6.93624 6.04804 7.10424 6.04804H8.30424V14.184C8.56824 14.112 8.85624 14.088 9.14424 14.088C9.21624 14.088 9.28824 14.088 9.36024 14.088L10.3682 14.136V6.04804H17.9762V14.688L19.2482 14.328C19.4402 14.256 19.6562 14.232 19.8722 14.232C19.9202 14.232 19.9682 14.232 20.0402 14.232V6.04804H21.2402C21.4082 6.04804 21.5522 5.90404 21.5522 5.73604V4.39204C21.5042 4.27204 21.4322 4.15204 21.3362 4.10404ZM14.1362 4.51204C13.5842 4.51204 13.1042 4.05604 13.1042 3.48004C13.1042 2.92804 13.5602 2.44804 14.1362 2.44804C14.7122 2.44804 15.1682 2.90404 15.1682 3.48004C15.1682 4.05604 14.7122 4.51204 14.1362 4.51204Z" fill="currentColor"/>
<path d="M14.3517 12.504H13.9197C13.6077 12.504 13.3677 12.288 13.3197 11.976C13.3197 11.928 13.2717 11.904 13.2237 11.904H12.3597C12.3117 11.904 12.2637 11.952 12.2637 12C12.3117 12.768 12.8877 13.392 13.6077 13.512V14.16C13.6077 14.208 13.6557 14.256 13.7037 14.256H14.5677C14.6157 14.256 14.6637 14.208 14.6637 14.16V13.512C15.3837 13.368 15.9597 12.768 16.0077 12.024C16.0797 11.064 15.3117 10.248 14.3517 10.248H13.9197C13.5597 10.248 13.2717 9.91196 13.3437 9.52796C13.3917 9.23996 13.6557 9.04796 13.9437 9.04796H14.3757C14.6877 9.04796 14.9277 9.26396 14.9757 9.55196C14.9757 9.59996 15.0237 9.62396 15.0717 9.62396H15.9357C15.9837 9.62396 16.0317 9.57596 16.0317 9.52796C15.9837 8.75996 15.4077 8.13596 14.6877 8.01596V7.36796C14.6877 7.31996 14.6397 7.27196 14.5917 7.27196H13.7277C13.6797 7.27196 13.6317 7.31996 13.6317 7.36796V8.01596C12.8397 8.15996 12.2157 8.90396 12.2877 9.74396C12.3357 10.632 13.1037 11.28 13.9917 11.28H14.3997C14.7597 11.28 15.0717 11.616 14.9757 12C14.9037 12.288 14.6397 12.504 14.3517 12.504Z" fill="currentColor"/>
<path d="M19.5598 15.528L16.3678 16.44C16.3678 16.512 16.3678 16.608 16.3678 16.68C16.2958 17.5921 15.6238 18.3361 14.7118 18.5041L14.5918 18.528C13.3918 18.768 12.1678 18.888 10.9438 18.888L9.95982 18.9121C9.81582 18.9121 9.64782 18.8641 9.55182 18.7441C9.43182 18.6241 9.38382 18.4801 9.38382 18.3361C9.38382 18.1681 9.43182 18.024 9.55182 17.928C9.67182 17.808 9.81582 17.7601 9.95982 17.7601L10.9918 17.7361C12.0958 17.7121 13.2238 17.6161 14.3038 17.4001L14.4958 17.3521C14.8798 17.2801 15.1678 16.944 15.1918 16.56C15.2158 16.32 15.1438 16.1041 14.9758 15.936C14.8078 15.768 14.6158 15.648 14.3758 15.648L9.26382 15.36C8.71182 15.336 8.13582 15.48 7.67982 15.816L2.75982 19.4401C2.44782 19.6801 2.39982 20.1361 2.68782 20.4241L5.37582 23.2081C5.61582 23.4481 5.97582 23.4721 6.23982 23.2801L7.43982 22.3921C7.63182 22.2481 7.87182 22.1761 8.11182 22.2241L11.9758 22.6801C12.7198 22.7761 13.4638 22.5601 14.0638 22.1281L20.4718 17.3521C20.7118 17.1841 20.8558 16.9201 20.8798 16.6321C20.9038 16.3441 20.8078 16.056 20.6158 15.84C20.3518 15.528 19.9198 15.408 19.5598 15.528Z" fill="currentColor"/>
</svg>
