<svg width="24" height="24" viewBox="0 0 24 24" fill="none" xmlns="http://www.w3.org/2000/svg">
<path d="M11.8433 9.81198C12.0691 9.90054 12.2906 9.68381 12.2157 9.45321C11.702 7.87029 9.84223 7.2798 8.11331 8.68416C7.20388 9.42296 6.86214 9.57994 6.85352 9.5839C7.45306 10.1833 8.13799 12.1948 9.63278 12.4173C11.2794 12.7158 12.7368 11.0958 11.5444 10.3545C10.7603 9.86702 9.83703 9.58385 8.8474 9.58385C9.8849 9.34998 10.9206 9.45026 11.8433 9.81198Z" fill="currentColor"/>
<path d="M19.2991 8.6842C16.3146 6.26001 14.4113 10.083 15.5944 9.70403C16.4347 9.43488 17.3533 9.37626 18.2747 9.58394C16.7135 9.58394 15.2744 10.2994 14.3149 11.4639C14.3937 9.63384 14.5129 8.48829 14.6511 7.63615C15.4486 7.60874 16.5115 6.96476 17.0951 5.8379C18.1014 4.03702 17.6348 2.19053 17.4846 1.02539C16.6983 1.79107 13.2635 0.893896 11.9019 3.22717C11.3004 4.25788 11.4753 5.51211 12.108 6.42994C12.3083 6.72051 12.7872 6.58109 12.8009 6.22847C12.8603 4.69455 13.6237 3.53562 15.0469 2.89373C14.4083 3.72119 13.989 4.64759 13.7723 5.60511C13.4356 7.09668 13.0839 8.07512 12.9548 12.8292C12.9417 13.3113 13.3322 13.7104 13.8145 13.7044C14.1637 13.7 14.4627 13.4784 14.597 13.1561C14.8012 12.6659 15.1336 12.1586 15.6745 11.6937C16.1884 12.2619 16.9706 12.5641 17.7798 12.4174C19.2682 12.1959 19.9629 10.18 20.559 9.58389C20.5503 9.58003 20.2085 9.42305 19.2991 8.6842Z" fill="currentColor"/>
<path d="M20.4883 14.1907L16.8426 15.2102C16.8426 15.2907 16.8426 15.398 16.8426 15.4785C16.7604 16.4981 15.9929 17.3298 14.9513 17.5177L14.8142 17.5445C13.4437 17.8128 12.0457 17.9469 10.6478 17.9469L9.52391 17.9738C9.35945 17.9738 9.16757 17.9201 9.05793 17.786C8.92087 17.6518 8.86605 17.4908 8.86605 17.3298C8.86605 17.142 8.92087 16.981 9.05793 16.8737C9.19498 16.7396 9.35945 16.6859 9.52391 16.6859L10.7026 16.6591C11.9635 16.6322 13.2518 16.5249 14.4853 16.2835L14.7046 16.2298C15.1431 16.1493 15.4721 15.7737 15.4995 15.3444C15.5269 15.0761 15.4447 14.8346 15.2528 14.6468C15.0609 14.459 14.8416 14.3248 14.5675 14.3248L8.729 14.0029C8.09855 13.976 7.44069 14.137 6.91988 14.5126L1.30065 18.564C0.944312 18.8323 0.88949 19.3421 1.21842 19.6641L4.28844 22.7764C4.56255 23.0447 4.97371 23.0715 5.27523 22.8569L6.64577 21.8642C6.86506 21.7032 7.13917 21.6227 7.41328 21.6764L11.8264 22.1861C12.6762 22.2935 13.5259 22.052 14.2112 21.569L21.5299 16.2298C21.804 16.042 21.9685 15.7468 21.9959 15.4249C22.0233 15.1029 21.9136 14.7809 21.6943 14.5395C21.3928 14.1907 20.8994 14.0565 20.4883 14.1907Z" fill="currentColor"/>
</svg>
