<svg width="24" height="24" viewBox="0 0 24 24" fill="none" xmlns="http://www.w3.org/2000/svg">
<g clip-path="url(#clip0)">
<path d="M23.5246 12.5212C22.9944 10.7321 22.0292 9.08473 20.7292 7.74706L21.1147 7.36156C21.3851 7.09118 21.3851 6.6528 21.1147 6.38243L17.6177 2.88546C17.3474 2.61509 16.909 2.61509 16.6386 2.88546L16.2531 3.27096C14.9154 1.97088 13.2681 1.00577 11.479 0.475571C9.63775 -0.0701482 7.67153 -0.14782 5.79301 0.250992C5.47623 0.318258 5.24837 0.596039 5.24444 0.919899C5.2405 1.24366 5.46156 1.52693 5.77656 1.60184L6.45437 1.76295C8.28901 2.19907 9.96358 3.13437 11.297 4.46782L13.1766 6.34741L12.9668 6.55723C12.6964 6.8276 12.6964 7.26598 12.9668 7.53635L16.4638 11.0333C16.7341 11.3037 17.1725 11.3037 17.4429 11.0333L17.6527 10.8235L19.5323 12.7031C20.8657 14.0366 21.8011 15.7111 22.2372 17.5457L22.3983 18.2235C22.4725 18.5358 22.7515 18.7557 23.0717 18.7557C23.0746 18.7557 23.0774 18.7557 23.0802 18.7556C23.404 18.7517 23.6819 18.5239 23.7491 18.2071C24.1479 16.3286 24.0702 14.3624 23.5246 12.5212Z" fill="currentColor"/>
<path d="M12.1974 8.7253L0.202781 20.7199C-0.0675937 20.9903 -0.0675937 21.4287 0.202781 21.699L2.30095 23.7972C2.43614 23.9324 2.61333 24 2.79047 24C2.96761 24 3.14484 23.9325 3.27998 23.7972L15.2746 11.8026L12.1974 8.7253Z" fill="currentColor"/>
</g>
<defs>
<clipPath id="clip0">
<rect width="24" height="24" fill="white"/>
</clipPath>
</defs>
</svg>
