<svg width="24" height="24" viewBox="0 0 24 24" fill="none" xmlns="http://www.w3.org/2000/svg">
<path d="M21 13C21 18.5228 16.5228 23 11 23C5.47715 23 1 18.5228 1 13C1 7.47715 5.47715 3 11 3C16.5228 3 21 7.47715 21 13ZM2.74951 13C2.74951 17.5566 6.44338 21.2505 11 21.2505C15.5566 21.2505 19.2505 17.5566 19.2505 13C19.2505 8.44338 15.5566 4.74951 11 4.74951C6.44338 4.74951 2.74951 8.44338 2.74951 13Z" fill="currentColor"/>
<circle cx="11" cy="13" r="7.14286" fill="currentColor"/>
<path d="M5.854 15.3763C5.75418 15.3763 5.66737 15.3394 5.59359 15.2656C5.5198 15.1918 5.48291 15.105 5.48291 15.0052V10.9948C5.48291 10.895 5.5198 10.8082 5.59359 10.7344C5.66737 10.6606 5.75418 10.6237 5.854 10.6237H6.17301C6.42041 10.6237 6.60053 10.7322 6.71338 10.9492L8.07563 13.5245C8.07887 13.5307 8.08014 13.5404 8.08708 13.5404C8.09142 13.5404 8.09359 13.5382 8.09359 13.5339V10.9948C8.09359 10.895 8.13048 10.8082 8.20427 10.7344C8.27805 10.6606 8.36486 10.6237 8.46468 10.6237H8.78369C8.88352 10.6237 8.97033 10.6606 9.04411 10.7344C9.1179 10.8082 9.15479 10.895 9.15479 10.9948V15.0052C9.15479 15.105 9.1179 15.1918 9.04411 15.2656C8.97033 15.3394 8.88352 15.3763 8.78369 15.3763H8.46468C8.21729 15.3763 8.03717 15.2678 7.92432 15.0508L6.56207 12.4755C6.55883 12.4694 6.55756 12.4596 6.55062 12.4596C6.54628 12.4596 6.54411 12.4618 6.54411 12.4661V15.0052C6.54411 15.105 6.50722 15.1918 6.43343 15.2656C6.35965 15.3394 6.27284 15.3763 6.17301 15.3763H5.854Z" fill="white"/>
<path d="M10.1888 15.3763C10.0889 15.3763 10.0021 15.3394 9.92836 15.2656C9.85457 15.1918 9.81768 15.105 9.81768 15.0052V10.9948C9.81768 10.895 9.85457 10.8082 9.92836 10.7344C10.0021 10.6606 10.0889 10.6237 10.1888 10.6237H12.4219C12.5217 10.6237 12.6085 10.6606 12.6823 10.7344C12.7561 10.8082 12.7929 10.895 12.7929 10.9948V11.1445C12.7929 11.2444 12.7561 11.3312 12.6823 11.4049C12.6085 11.4787 12.5217 11.5156 12.4219 11.5156H10.983C10.944 11.5156 10.9245 11.533 10.9245 11.5677V12.5378C10.9245 12.5768 10.944 12.5964 10.983 12.5964H12.2916C12.3915 12.5964 12.4783 12.6332 12.5521 12.707C12.6258 12.7765 12.6627 12.8611 12.6627 12.9609V13.0651C12.6627 13.1649 12.6258 13.2517 12.5521 13.3255C12.4783 13.395 12.3915 13.4297 12.2916 13.4297H10.983C10.944 13.4297 10.9245 13.4492 10.9245 13.4883V15.0052C10.9245 15.105 10.8876 15.1918 10.8138 15.2656C10.7443 15.3394 10.6597 15.3763 10.5599 15.3763H10.1888Z" fill="white"/>
<path d="M13.5661 11.5417C13.4662 11.5417 13.3794 11.5048 13.3056 11.431C13.2319 11.3572 13.195 11.2704 13.195 11.1706V10.9948C13.195 10.895 13.2319 10.8082 13.3056 10.7344C13.3794 10.6606 13.4662 10.6237 13.5661 10.6237H16.4697C16.5695 10.6237 16.6563 10.6606 16.7301 10.7344C16.8039 10.8082 16.8408 10.895 16.8408 10.9948V11.1706C16.8408 11.2704 16.8039 11.3572 16.7301 11.431C16.6563 11.5048 16.5695 11.5417 16.4697 11.5417H15.6364C15.6017 11.5417 15.5843 11.559 15.5843 11.5938V15.0052C15.5843 15.105 15.5474 15.1918 15.4736 15.2656C15.3998 15.3394 15.313 15.3763 15.2132 15.3763H14.8226C14.7227 15.3763 14.6359 15.3394 14.5622 15.2656C14.4884 15.1918 14.4515 15.105 14.4515 15.0052V11.5938C14.4515 11.559 14.4341 11.5417 14.3994 11.5417H13.5661Z" fill="white"/>
<path d="M19.6181 0.952921C19.7435 0.614034 20.2228 0.614034 20.3482 0.95292L21.0059 2.73042C21.0453 2.83696 21.1293 2.92097 21.2359 2.96039L23.0134 3.61813C23.3523 3.74353 23.3523 4.22284 23.0134 4.34824L21.2359 5.00598C21.1293 5.0454 21.0453 5.1294 21.0059 5.23595L20.3482 7.01345C20.2228 7.35233 19.7435 7.35234 19.6181 7.01345L18.9603 5.23595C18.9209 5.1294 18.8369 5.0454 18.7304 5.00598L16.9529 4.34824C16.614 4.22284 16.614 3.74353 16.9529 3.61813L18.7304 2.96039C18.8369 2.92097 18.9209 2.83696 18.9603 2.73042L19.6181 0.952921Z" fill="currentColor"/>
<path d="M16.1017 0.744718C16.1637 0.577402 16.4003 0.577402 16.4622 0.744718L16.6565 1.26962C16.6759 1.32223 16.7174 1.3637 16.77 1.38317L17.2949 1.5774C17.4622 1.63931 17.4622 1.87596 17.2949 1.93787L16.77 2.13211C16.7174 2.15157 16.6759 2.19305 16.6565 2.24565L16.4622 2.77056C16.4003 2.93787 16.1637 2.93787 16.1017 2.77056L15.9075 2.24565C15.888 2.19305 15.8466 2.15157 15.794 2.13211L15.2691 1.93787C15.1017 1.87596 15.1017 1.63931 15.2691 1.5774L15.794 1.38317C15.8466 1.3637 15.888 1.32223 15.9075 1.26963L16.1017 0.744718Z" fill="currentColor"/>
<path d="M22.0261 6.85772C22.088 6.69041 22.3246 6.69041 22.3865 6.85772L22.6601 7.59702C22.6796 7.64962 22.721 7.69109 22.7737 7.71056L23.5129 7.98412C23.6803 8.04603 23.6803 8.28268 23.5129 8.34459L22.7737 8.61816C22.721 8.63762 22.6796 8.6791 22.6601 8.7317L22.3865 9.47099C22.3246 9.63831 22.088 9.63831 22.0261 9.47099L21.7525 8.7317C21.733 8.6791 21.6916 8.63762 21.639 8.61816L20.8997 8.34459C20.7324 8.28268 20.7324 8.04603 20.8997 7.98412L21.639 7.71056C21.6916 7.69109 21.733 7.64962 21.7525 7.59702L22.0261 6.85772Z" fill="currentColor"/>
</svg>
