<svg width="24" height="24" viewBox="0 0 24 24" fill="none" xmlns="http://www.w3.org/2000/svg">
<path d="M1.87207 6.55202C1.87207 8.87162 3.75248 10.752 6.07207 10.752C8.39167 10.752 10.2721 8.87162 10.2721 6.55202C10.2721 4.23242 8.39167 2.35202 6.07207 2.35202C3.75248 2.35202 1.87207 4.23242 1.87207 6.55202Z" fill="currentColor"/>
<path d="M4.73657 6.55201C4.73657 7.2895 5.33442 7.88735 6.07191 7.88735C6.80939 7.88735 7.40724 7.2895 7.40724 6.55201C7.40724 5.81453 6.80939 5.21668 6.07191 5.21668C5.33442 5.21668 4.73657 5.81453 4.73657 6.55201Z" fill="white"/>
<path d="M13.6079 17.328C13.6079 19.6476 15.4883 21.528 17.8079 21.528C20.1275 21.528 22.0079 19.6476 22.0079 17.328C22.0079 15.0084 20.1275 13.128 17.8079 13.128C15.4883 13.128 13.6079 15.0084 13.6079 17.328Z" fill="currentColor"/>
<path d="M7.99196 14.736H9.59996L7.05596 12.216L4.51196 14.736H6.11996C6.35996 17.64 8.80796 19.92 11.76 19.92V18.048C9.83996 18.072 8.23196 16.608 7.99196 14.736Z" fill="currentColor"/>
<path d="M15.84 9.33601H14.256L16.8 11.88L19.344 9.33601H17.736C17.496 6.43201 15.048 4.15201 12.072 4.15201V6.02401C13.992 6.02401 15.6 7.46401 15.84 9.33601Z" fill="currentColor"/>
</svg>
