<svg width="24" height="24" viewBox="0 0 24 24" fill="none" xmlns="http://www.w3.org/2000/svg">
<g clip-path="url(#clip0)">
<path d="M23.2174 11.2174H22.1342C21.752 6.23203 17.768 2.24803 12.7826 1.86572V0.782625C12.7826 0.350297 12.4323 0 12 0C11.5677 0 11.2174 0.350297 11.2174 0.782625V1.86577C6.23203 2.24803 2.24803 6.23203 1.86572 11.2174H0.782625C0.350297 11.2174 0 11.5677 0 12C0 12.4323 0.350297 12.7826 0.782625 12.7826H1.86577C2.24803 17.768 6.23203 21.752 11.2174 22.1343V23.2174C11.2174 23.6497 11.5677 24 12 24C12.4324 24 12.7827 23.6497 12.7827 23.2174V22.1343C17.7681 21.752 21.7521 17.768 22.1343 12.7826H23.2175C23.6495 12.7826 24.0001 12.4323 24.0001 12C24 11.5677 23.6494 11.2174 23.2174 11.2174ZM12.7826 3.43097C16.9055 3.80475 20.1953 7.09458 20.5691 11.2174H18.9974C18.635 7.95834 16.0417 5.36508 12.7827 5.00269V3.43097H12.7826ZM11.2174 3.43097V5.00269C7.9583 5.36503 5.36503 7.9583 5.00264 11.2174H3.43097C3.80475 7.09458 7.09458 3.80475 11.2174 3.43097ZM11.2174 20.569H11.2174C7.09453 20.1952 3.8047 16.9054 3.43092 12.7826H5.00264C5.36498 16.0417 7.9583 18.6349 11.2174 18.9973V20.569H11.2174ZM12 15.913C11.5677 15.913 11.2174 16.2633 11.2174 16.6957V17.4158C8.82337 17.0709 6.92911 15.1766 6.5842 12.7826H7.3043C7.73662 12.7826 8.08692 12.4323 8.08692 12C8.08692 11.5677 7.73662 11.2174 7.3043 11.2174H6.5842C6.92902 8.82337 8.82333 6.92911 11.2174 6.5842V7.3043C11.2174 7.73662 11.5677 8.08692 12 8.08692C12.4323 8.08692 12.7826 7.73662 12.7826 7.3043V6.5842C15.1766 6.92902 17.0709 8.82333 17.4158 11.2174H16.6957C16.2633 11.2174 15.913 11.5677 15.913 12C15.913 12.4323 16.2633 12.7774 16.6957 12.7774H17.4158C17.0709 15.1714 15.1766 17.0709 12.7826 17.4158V16.6957C12.7826 16.2633 12.4323 15.913 12 15.913ZM12.7826 20.569V18.9973C16.0417 18.635 18.635 16.0365 18.9974 12.7773H20.5691C20.1952 16.9002 16.9054 20.1952 12.7826 20.569Z" fill="currentColor"/>
<path d="M11.9999 9.6522C10.7053 9.6522 9.6521 10.7054 9.6521 12C9.6521 13.2947 10.7053 14.3479 11.9999 14.3479C13.2946 14.3479 14.3478 13.2947 14.3478 12C14.3478 10.7054 13.2946 9.6522 11.9999 9.6522Z" fill="currentColor"/>
</g>
<defs>
<clipPath id="clip0">
<rect width="24" height="24" fill="white"/>
</clipPath>
</defs>
</svg>
