<svg width="24" height="24" viewBox="0 0 24 24" fill="none" xmlns="http://www.w3.org/2000/svg">
<path d="M16.1647 6.3495C16.3889 6.12533 16.3877 5.76154 16.1621 5.53881L14.7183 4.11321C14.4947 3.89248 14.1349 3.89363 13.9127 4.11578L6.13555 11.8929C5.92859 12.0999 5.5987 12.117 5.37143 11.9326L3.21714 10.1845C2.84364 9.88137 2.28564 10.1472 2.28564 10.6282V18.849C2.28564 19.3581 2.90115 19.6131 3.26113 19.2531L16.1647 6.3495Z" fill="currentColor"/>
<path d="M8.17624 17.4245C7.95269 17.6476 7.9525 18.0097 8.17582 18.233L9.62443 19.6816C9.84758 19.9048 10.2094 19.9048 10.4325 19.6816L18.1655 11.9487C18.3893 11.7249 18.7525 11.7257 18.9754 11.9506L20.7369 13.7281C21.0961 14.0906 21.7142 13.8362 21.7142 13.3259V5.29183C21.7142 4.78303 21.0993 4.52795 20.7391 4.88736L8.17624 17.4245Z" fill="currentColor"/>
</svg>
