<svg width="24" height="24" viewBox="0 0 24 24" fill="none" xmlns="http://www.w3.org/2000/svg">
<path d="M12.0006 5.82997L14.4606 8.28997C14.8506 8.67997 15.4806 8.67997 15.8706 8.28997C16.2606 7.89997 16.2606 7.26997 15.8706 6.87997L12.7006 3.69997C12.3106 3.30997 11.6806 3.30997 11.2906 3.69997L8.12062 6.87997C7.73063 7.26997 7.73063 7.89997 8.12062 8.28997C8.51063 8.67997 9.14062 8.67997 9.53062 8.28997L12.0006 5.82997ZM12.0006 18.17L9.54063 15.71C9.15063 15.32 8.52063 15.32 8.13063 15.71C7.74063 16.1 7.74063 16.73 8.13063 17.12L11.3006 20.3C11.6906 20.69 12.3206 20.69 12.7106 20.3L15.8806 17.13C16.2706 16.74 16.2706 16.11 15.8806 15.72C15.4906 15.33 14.8606 15.33 14.4706 15.72L12.0006 18.17Z" fill="currentColor"/>
</svg>
