<svg width="24" height="24" viewBox="0 0 24 24" fill="none" xmlns="http://www.w3.org/2000/svg">
<path d="M17.8333 2H6.16667C5.06172 2.0004 4.00214 2.43951 3.22083 3.22083C2.43951 4.00214 2.0004 5.06172 2 6.16667V17.8333C2.0004 18.9383 2.43951 19.9979 3.22083 20.7792C4.00214 21.5605 5.06172 21.9996 6.16667 22H17.8333C18.9383 21.9996 19.9979 21.5605 20.7792 20.7792C21.5605 19.9979 21.9996 18.9383 22 17.8333V6.16667C21.9996 5.06172 21.5605 4.00214 20.7792 3.22083C19.9979 2.43951 18.9383 2.0004 17.8333 2ZM12 18.6667C10.6815 18.6667 9.39253 18.2757 8.2962 17.5431C7.19987 16.8106 6.34539 15.7694 5.8408 14.5512C5.33622 13.333 5.2042 11.9926 5.46143 10.6994C5.71867 9.40619 6.3536 8.2183 7.28595 7.28595C8.2183 6.3536 9.40619 5.71867 10.6994 5.46143C11.9926 5.2042 13.333 5.33622 14.5512 5.8408C15.7694 6.34539 16.8106 7.19987 17.5431 8.2962C18.2757 9.39253 18.6667 10.6815 18.6667 12C18.6643 13.7674 17.9612 15.4617 16.7114 16.7114C15.4617 17.9612 13.7674 18.6643 12 18.6667Z" fill="currentColor"/>
<path d="M12 7C11.0111 7 10.0444 7.29325 9.22215 7.84265C8.3999 8.39206 7.75904 9.17295 7.3806 10.0866C7.00217 11.0002 6.90315 12.0055 7.09608 12.9755C7.289 13.9454 7.76521 14.8363 8.46447 15.5355C9.16373 16.2348 10.0546 16.711 11.0246 16.9039C11.9945 17.0969 12.9998 16.9978 13.9134 16.6194C14.827 16.241 15.6079 15.6001 16.1573 14.7779C16.7068 13.9556 17 12.9889 17 12C16.999 10.6742 16.4718 9.40308 15.5344 8.46562C14.5969 7.52817 13.3258 7.00105 12 7ZM14.5 12.8333H13.4417C13.2582 13.1511 12.9751 13.3994 12.6361 13.5398C12.2971 13.6802 11.9213 13.7048 11.5669 13.6099C11.2125 13.5149 10.8994 13.3057 10.676 13.0146C10.4527 12.7235 10.3316 12.3669 10.3316 12C10.3316 11.6331 10.4527 11.2765 10.676 10.9854C10.8994 10.6943 11.2125 10.4851 11.5669 10.3901C11.9213 10.2952 12.2971 10.3198 12.6361 10.4602C12.9751 10.6006 13.2582 10.8489 13.4417 11.1667H14.5C14.721 11.1667 14.933 11.2545 15.0893 11.4107C15.2455 11.567 15.3333 11.779 15.3333 12C15.3333 12.221 15.2455 12.433 15.0893 12.5893C14.933 12.7455 14.721 12.8333 14.5 12.8333Z" fill="currentColor"/>
</svg>
